<mxfile host="app.diagrams.net" modified="2024-06-07T05:52:48.712Z" agent="Mozilla/5.0 (Windows NT 10.0; Win64; x64) AppleWebKit/537.36 (KHTML, like Gecko) Chrome/125.0.0.0 Safari/537.36" version="24.4.15" etag="OJYmWACwlbVyEftbZ49X" type="github">
  <diagram name="Page-1" id="GF7OaNWlpsntlyMCokd7">
    <mxGraphModel>
      <root>
        <mxCell id="0" />
        <mxCell id="1" parent="0" />
      </root>
    </mxGraphModel>
  </diagram>
</mxfile>
